<?xml version="1.0" encoding="utf-8"?>
<!-- Generator: Adobe Illustrator 25.2.1, SVG Export Plug-In . SVG Version: 6.00 Build 0)  -->
<svg version="1.1" id="Слой_1" xmlns="http://www.w3.org/2000/svg" xmlns:xlink="http://www.w3.org/1999/xlink" x="0px" y="0px"
	 viewBox="0 0 207 209" style="enable-background:new 0 0 207 209;" xml:space="preserve">
<style type="text/css">
	.st0{fill:#FFFFFF;}
</style>
<path class="st0" d="M94.1,0.6c28.1,1.6,47.1,25.9,67,45.9s43.8,39.2,45.3,67.3c1.5,29-15.5,56.2-37.7,74.9
	c-20.5,17.2-47.9,18.8-74.6,19.3c-27.5,0.6-58.3,3.4-77.7-16.2S0.6,141.4,1,113.8C1.5,86.9,1.8,59,18.9,38.3
	C37.4,15.7,65-1.1,94.1,0.6z"/>
<path class="st0" d="M94.1,0.6c28.1,1.6,47.1,25.9,67,45.9s43.8,39.2,45.3,67.3c1.5,29-15.5,56.2-37.7,74.9
	c-20.5,17.2-47.9,18.8-74.6,19.3c-27.5,0.6-58.3,3.4-77.7-16.2S0.6,141.4,1,113.8C1.5,86.9,1.8,59,18.9,38.3
	C37.4,15.7,65-1.1,94.1,0.6z"/>
</svg>
