<?xml version="1.0" encoding="utf-8"?>
<!-- Generator: Adobe Illustrator 25.2.1, SVG Export Plug-In . SVG Version: 6.00 Build 0)  -->
<svg version="1.1" id="Слой_1" xmlns="http://www.w3.org/2000/svg" xmlns:xlink="http://www.w3.org/1999/xlink" x="0px" y="0px"
	 viewBox="0 0 278 244" style="enable-background:new 0 0 278 244;" xml:space="preserve">
<style type="text/css">
	.st0{fill:#FFFFFF;}
</style>
<path class="st0" d="M144.8,1.2c33,1.6,66.2,7.7,90.6,30c25.4,23.2,38.5,56.1,41,90.4c2.8,37.4,1.6,79.9-26.3,105.1
	c-27.3,24.6-68.6,15.6-105.3,13.6c-33.9-1.8-68.7-2.6-94.8-24.1c-28.6-23.5-48.5-57.6-49.4-94.6c-1-37.8,15.3-75.4,44.3-99.7
	C72-0.8,109.5-0.5,144.8,1.2z"/>
<path class="st0" d="M144.8,1.2c33,1.6,66.2,7.7,90.6,30c25.4,23.2,38.5,56.1,41,90.4c2.8,37.4,1.6,79.9-26.3,105.1
	c-27.3,24.6-68.6,15.6-105.3,13.6c-33.9-1.8-68.7-2.6-94.8-24.1c-28.6-23.5-48.5-57.6-49.4-94.6c-1-37.8,15.3-75.4,44.3-99.7
	C72-0.8,109.5-0.5,144.8,1.2z"/>
</svg>
