<?xml version="1.0" encoding="utf-8"?>
<!-- Generator: Adobe Illustrator 25.2.1, SVG Export Plug-In . SVG Version: 6.00 Build 0)  -->
<svg version="1.1" id="Слой_1" xmlns="http://www.w3.org/2000/svg" xmlns:xlink="http://www.w3.org/1999/xlink" x="0px" y="0px"
	 viewBox="0 0 187 164" style="enable-background:new 0 0 187 164;" xml:space="preserve">
<style type="text/css">
	.st0{fill:#FFFFFF;}
</style>
<path class="st0" d="M97.4,1c22.2,1.1,44.5,5.2,60.8,20.1c17.1,15.6,25.8,37.6,27.6,60.6c1.9,25.1,1.1,53.6-17.7,70.5
	c-18.3,16.5-46,10.5-70.7,9.2c-22.7-1.2-46.1-1.8-63.7-16.2C14.5,129.4,1.2,106.5,0.5,81.7c-0.7-25.3,10.2-50.6,29.8-66.9
	C48.5-0.4,73.7-0.2,97.4,1z"/>
<path class="st0" d="M97.4,1c22.2,1.1,44.5,5.2,60.8,20.1c17.1,15.6,25.8,37.6,27.6,60.6c1.9,25.1,1.1,53.6-17.7,70.5
	c-18.3,16.5-46,10.5-70.7,9.2c-22.7-1.2-46.1-1.8-63.7-16.2C14.5,129.4,1.2,106.5,0.5,81.7c-0.7-25.3,10.2-50.6,29.8-66.9
	C48.5-0.4,73.7-0.2,97.4,1z"/>
</svg>
