<?xml version="1.0" encoding="utf-8"?>
<!-- Generator: Adobe Illustrator 25.2.1, SVG Export Plug-In . SVG Version: 6.00 Build 0)  -->
<svg version="1.1" id="Слой_1" xmlns="http://www.w3.org/2000/svg" xmlns:xlink="http://www.w3.org/1999/xlink" x="0px" y="0px"
	 viewBox="0 0 226.8 196.5" style="enable-background:new 0 0 226.8 196.5;" xml:space="preserve">
<style type="text/css">
	.st0{fill:#FFFFFF;}
</style>
<path class="st0" d="M226.3,90c0.5,29-18.6,53.6-39.5,73.7c-19.5,18.7-44,31.2-71,32.3c-27.2,1.1-53.2-8.7-73.9-26.4
	C20.1,151,0.2,126.6,0.5,97.8c0.3-28,22-49.8,42.9-68.4C61.9,13,84.4,3.8,109,1.5c26.5-2.5,54.1-1.2,75.4,14.9
	C207.9,34,225.8,60.6,226.3,90z"/>
<path class="st0" d="M226.3,90c0.5,29-18.6,53.6-39.5,73.7c-19.5,18.7-44,31.2-71,32.3c-27.2,1.1-53.2-8.7-73.9-26.4
	C20.1,151,0.2,126.6,0.5,97.8c0.3-28,22-49.8,42.9-68.4C61.9,13,84.4,3.8,109,1.5c26.5-2.5,54.1-1.2,75.4,14.9
	C207.9,34,225.8,60.6,226.3,90z"/>
</svg>
