<svg id="Слой_1" data-name="Слой 1" xmlns="http://www.w3.org/2000/svg" width="277" height="313" viewBox="0 0 277 313">
  <defs>
    <style>
      .cls-1, .cls-2 {
        fill: none;
        stroke: #fff;
        stroke-miterlimit: 10;
      }

      .cls-1 {
        fill-rule: evenodd;
      }
    </style>
  </defs>
  <path class="cls-1" d="M173.71-24.91c39.87,1.25,79,17.4,104.63,48,23.8,28.46,21.24,67.5,23,104.54,1.85,40,12.22,83.48-12.79,114.71-26.67,33.29-72.15,46-114.8,44.57-41.27-1.43-79.34-21.7-107.1-52.26-26.43-29.1-36.77-67.73-37.55-107C28.27,87.36,34.58,45.5,62.29,16.28,90.61-13.58,132.56-26.2,173.71-24.91Z" transform="translate(-28.5 25.5)"/>
  <path class="cls-2" d="M173.71-24.91c39.87,1.25,79,17.4,104.63,48,23.8,28.46,21.24,67.5,23,104.54,1.85,40,12.22,83.48-12.79,114.71-26.67,33.29-72.15,46-114.8,44.57-41.27-1.43-79.34-21.7-107.1-52.26-26.43-29.1-36.77-67.73-37.55-107C28.27,87.36,34.58,45.5,62.29,16.28,90.61-13.58,132.56-26.2,173.71-24.91Z" transform="translate(-28.5 25.5)"/>
</svg>
