<svg id="Слой_1" data-name="Слой 1" xmlns="http://www.w3.org/2000/svg" width="333.62" height="262.19" viewBox="0 0 333.62 262.19">
  <defs>
    <style>
      .cls-1, .cls-2 {
        fill: none;
      }

      .cls-1 {
        stroke: #fff;
        stroke-miterlimit: 10;
        fill-rule: evenodd;
      }
    </style>
  </defs>
  <path class="cls-1" d="M263.67,5.31c35.6,16.57,55.83,54.58,65.11,92.74,9.08,37.3,6.18,78.22-15.87,109.64-20.68,29.47-58.19,37.55-93.22,45.85-33.65,8-67.5,12.26-99.8-.09-39.09-15-77.31-36.58-95.1-74.46C3.84,134.38-13.07,75,18.22,36.93,49-.56,108.87,24.31,157,18.11,193.93,13.36,229.92-10.39,263.67,5.31Z" transform="translate(-0.48 0.49)"/>
  <path class="cls-2" d="M263.67,5.31c35.6,16.57,55.83,54.58,65.11,92.74,9.08,37.3,6.18,78.22-15.87,109.64-20.68,29.47-58.19,37.55-93.22,45.85-33.65,8-67.5,12.26-99.8-.09-39.09-15-77.31-36.58-95.1-74.46C3.84,134.38-13.07,75,18.22,36.93,49-.56,108.87,24.31,157,18.11,193.93,13.36,229.92-10.39,263.67,5.31Z" transform="translate(-0.48 0.49)"/>
</svg>
