<svg width="130" height="401" viewBox="0 0 130 401" fill="none" xmlns="http://www.w3.org/2000/svg">
<path d="M14.335 212.011C14.335 212.011 22.1423 227.918 36.1953 231.888C50.2483 235.858 65.2253 226.389 65.2253 226.389C65.2253 226.389 57.4179 210.482 43.365 206.512C29.312 202.541 14.335 212.011 14.335 212.011Z" fill="#F26C74"/>
<path d="M100.209 76.4599C100.209 76.4599 95.637 35.7493 67.965 15.2028C40.293 -5.34366 0 2.05447 0 2.05447C0 2.05447 4.57219 42.7651 32.2442 63.3116C59.9162 83.8581 100.209 76.4599 100.209 76.4599Z" fill="#FAA881"/>
<path d="M129.295 369.917C129.295 369.917 108.606 359.45 90.295 366.174C71.9837 372.897 62.9839 394.265 62.9839 394.265C62.9839 394.265 83.6726 404.732 101.984 398.008C120.295 391.285 129.295 369.917 129.295 369.917Z" fill="#43A3A8"/>
</svg>
