<svg width="341" height="123" viewBox="0 0 341 123" fill="none" xmlns="http://www.w3.org/2000/svg">
<path d="M1.0452 98.067C1.0452 98.067 -1.24517 107.872 3.50658 114.675C8.25832 121.478 18.2528 122.703 18.2528 122.703C18.2528 122.703 20.5432 112.898 15.7914 106.095C11.0397 99.2917 1.0452 98.067 1.0452 98.067Z" fill="#F26C74"/>
<path d="M87.5905 69.3536C87.5905 69.3536 100.229 49.8038 95.4527 30.8098C90.6761 11.8159 70.2932 0.570266 70.2932 0.570266C70.2932 0.570266 57.6545 20.12 62.431 39.114C67.2075 58.108 87.5905 69.3536 87.5905 69.3536Z" fill="#FAA881"/>
<path d="M339.578 98.067C339.578 98.067 341.868 107.872 337.116 114.675C332.365 121.478 322.37 122.703 322.37 122.703C322.37 122.703 320.08 112.898 324.832 106.095C329.583 99.2917 339.578 98.067 339.578 98.067Z" fill="#43A3A8"/>
<path d="M253.033 69.3536C253.033 69.3536 240.394 49.8038 245.17 30.8098C249.947 11.8159 270.33 0.570266 270.33 0.570266C270.33 0.570266 282.969 20.12 278.192 39.114C273.416 58.108 253.033 69.3536 253.033 69.3536Z" fill="#7675FD"/>
</svg>
