<svg width="163" height="403" viewBox="0 0 163 403" fill="none" xmlns="http://www.w3.org/2000/svg">
<path d="M26.0391 357.326C26.0391 357.326 34.39 386.54 56.9024 397.504C79.4148 408.467 107.564 397.029 107.564 397.029C107.564 397.029 99.2127 367.815 76.7003 356.852C54.1879 345.888 26.0391 357.326 26.0391 357.326Z" fill="#F2726C"/>
<path d="M81.3066 225.161C81.3066 225.161 96.2803 241.502 114.545 241.317C132.81 241.132 147.449 224.491 147.449 224.491C147.449 224.491 132.476 208.15 114.211 208.335C95.9461 208.52 81.3066 225.161 81.3066 225.161Z" fill="#FAA881"/>
<path d="M0.230469 111.375C0.230469 111.375 58.5958 119.416 103.343 89.1064C148.09 58.7964 162.274 1.61264 162.274 1.61264C162.274 1.61264 103.909 -6.4288 59.1618 23.8813C14.4147 54.1913 0.230469 111.375 0.230469 111.375Z" fill="#7675FD"/>
</svg>
