<svg width="186" height="433" viewBox="0 0 186 433" fill="none" xmlns="http://www.w3.org/2000/svg">
<path d="M5.11815 45.5843C5.11815 45.5843 19.8186 39.5906 24.2369 27.276C28.6551 14.9614 21.1182 0.989216 21.1182 0.989216C21.1182 0.989216 6.41778 6.98295 1.99949 19.2975C-2.4188 31.6121 5.11815 45.5843 5.11815 45.5843Z" fill="#F2726C"/>
<path d="M97.6108 226.266C97.6108 226.266 109.491 238.798 124.019 238.679C138.546 238.56 150.22 225.835 150.22 225.835C150.22 225.835 138.34 213.303 123.812 213.422C109.284 213.541 97.6108 226.266 97.6108 226.266Z" fill="#FAA881"/>
<path d="M56.5488 380.779C56.5488 380.779 72.2374 383.255 83.0367 375.051C93.8359 366.847 95.6563 351.069 95.6563 351.069C95.6563 351.069 79.9677 348.592 69.1684 356.796C58.3692 365 56.5488 380.779 56.5488 380.779Z" fill="#7675FD"/>
<path d="M17.9685 403.708C17.9685 403.708 15.3903 414.915 20.8062 422.931C26.2222 430.948 37.5815 432.739 37.5815 432.739C37.5815 432.739 40.1598 421.532 34.7438 413.516C29.3278 405.499 17.9685 403.708 17.9685 403.708Z" fill="#43A3A8"/>
<path d="M74.3459 96.0473C74.3459 96.0473 112.297 103.809 142.947 85.8278C173.597 67.8467 185.339 30.932 185.339 30.932C185.339 30.932 147.387 23.1703 116.737 41.1514C86.0875 59.1325 74.3459 96.0473 74.3459 96.0473Z" fill="#7675FD"/>
</svg>
